<control>


default_path=//NDK/samples/kicks/kd14bop/snare_off/opn\


<global>
loop_mode=one_shot
volume=0
//ampeg_attack=0.001
//ampeg_release=0.15
//ampeg_dynamic=1


<group> //Begin Group for entire instrument
key=12

<region>
sample=kd14bop_opn_001.wav
lovel=0
hivel=1
amp_velcurve_1=1

<region>
sample=kd14bop_opn_002.wav
lovel=2
hivel=3
amp_velcurve_3=1

<region>
sample=kd14bop_opn_003.wav
lovel=4
hivel=5
amp_velcurve_5=1

<region>
sample=kd14bop_opn_004.wav
lovel=6
hivel=8
amp_velcurve_8=1

<region>
sample=kd14bop_opn_005.wav
lovel=9
hivel=10
amp_velcurve_10=1

<region>
sample=kd14bop_opn_006x.wav
lovel=11
hivel=12
amp_velcurve_12=1

<region>
sample=kd14bop_opn_007.wav
lovel=13
hivel=15
amp_velcurve_15=1

<region>
sample=kd14bop_opn_008.wav
lovel=16
hivel=17
amp_velcurve_17=1

<region>
sample=kd14bop_opn_009.wav
lovel=18
hivel=19
amp_velcurve_19=1

<region>
sample=kd14bop_opn_010.wav
lovel=20
hivel=22
amp_velcurve_22=1

<region>
sample=kd14bop_opn_011.wav
lovel=23
hivel=24
amp_velcurve_24=1

<region>
sample=kd14bop_opn_012.wav
lovel=25
hivel=26
amp_velcurve_26=1

<region>
sample=kd14bop_opn_013.wav
lovel=27
hivel=29
amp_velcurve_29=1

<region>
sample=kd14bop_opn_014.wav
lovel=30
hivel=31
amp_velcurve_31=1

<region>
sample=kd14bop_opn_015.wav
lovel=32
hivel=33
amp_velcurve_33=1

<region>
sample=kd14bop_opn_016.wav
lovel=34
hivel=35
amp_velcurve_35=1

<region>
sample=kd14bop_opn_017.wav
lovel=36
hivel=38
amp_velcurve_38=1

<region>
sample=kd14bop_opn_018.wav
lovel=39
hivel=40
amp_velcurve_40=1

<region>
sample=kd14bop_opn_019.wav
lovel=41
hivel=42
amp_velcurve_42=1

<region>
sample=kd14bop_opn_020.wav
lovel=43
hivel=45
amp_velcurve_45=1

<region>
sample=kd14bop_opn_021.wav
lovel=46
hivel=47
amp_velcurve_47=1

<region>
sample=kd14bop_opn_022.wav
lovel=48
hivel=49
amp_velcurve_49=1

<region>
sample=kd14bop_opn_023.wav
lovel=50
hivel=52
amp_velcurve_52=1

<region>
sample=kd14bop_opn_024.wav
lovel=53
hivel=54
amp_velcurve_54=1

<region>
sample=kd14bop_opn_025.wav
lovel=55
hivel=56
amp_velcurve_56=1

<region>
sample=kd14bop_opn_026.wav
lovel=57
hivel=59
amp_velcurve_59=1

<region>
sample=kd14bop_opn_027.wav
lovel=60
hivel=61
amp_velcurve_61=1

<region>
sample=kd14bop_opn_028.wav
lovel=62
hivel=63
amp_velcurve_63=1

<region>
sample=kd14bop_opn_029.wav
lovel=64
hivel=65
amp_velcurve_65=1

<region>
sample=kd14bop_opn_030.wav
lovel=66
hivel=68
amp_velcurve_68=1

<region>
sample=kd14bop_opn_031.wav
lovel=69
hivel=70
amp_velcurve_70=1

<region>
sample=kd14bop_opn_032.wav
lovel=71
hivel=72
amp_velcurve_72=1

<region>
sample=kd14bop_opn_033.wav
lovel=73
hivel=75
amp_velcurve_75=1

<region>
sample=kd14bop_opn_034.wav
lovel=76
hivel=77
amp_velcurve_77=1

<region>
sample=kd14bop_opn_035.wav
lovel=78
hivel=79
amp_velcurve_79=1

<region>
sample=kd14bop_opn_036.wav
lovel=80
hivel=82
amp_velcurve_82=1

<region>
sample=kd14bop_opn_037.wav
lovel=83
hivel=84
amp_velcurve_84=1

<region>
sample=kd14bop_opn_038.wav
lovel=85
hivel=86
amp_velcurve_86=1

<region>
sample=kd14bop_opn_039.wav
lovel=87
hivel=89
amp_velcurve_89=1

<region>
sample=kd14bop_opn_040.wav
lovel=90
hivel=91
amp_velcurve_91=1

<region>
sample=kd14bop_opn_041.wav
lovel=92
hivel=93
amp_velcurve_93=1

<region>
sample=kd14bop_opn_042.wav
lovel=94
hivel=95
amp_velcurve_95=1

<region>
sample=kd14bop_opn_043.wav
lovel=96
hivel=98
amp_velcurve_98=1

<region>
sample=kd14bop_opn_044.wav
lovel=99
hivel=100
amp_velcurve_100=1

<region>
sample=kd14bop_opn_045.wav
lovel=101
hivel=102
amp_velcurve_102=1

<region>
sample=kd14bop_opn_046.wav
lovel=103
hivel=105
amp_velcurve_105=1

<region>
sample=kd14bop_opn_055.wav
lovel=106
hivel=107
amp_velcurve_107=1

<region>
sample=kd14bop_opn_047.wav
lovel=108
hivel=109
amp_velcurve_109=1

<region>
sample=kd14bop_opn_048x.wav
lovel=110
hivel=112
amp_velcurve_112=1


<region>
sample=kd14bop_opn_049.wav
lovel=113
hivel=114
amp_velcurve_114=1

<region>
sample=kd14bop_opn_050.wav
lovel=115
hivel=116
amp_velcurve_116=1

<region>
sample=kd14bop_opn_051.wav
lovel=117
hivel=119
amp_velcurve_119=1

<region>
sample=kd14bop_opn_052.wav
lovel=120
hivel=121
amp_velcurve_121=1

<region>
sample=kd14bop_opn_053.wav
lovel=122
hivel=123
amp_velcurve_123=1

<region>
sample=kd14bop_opn_054.wav
lovel=124
hivel=127
amp_velcurve_127=1

